<?xml version="1.0" encoding="UTF-8" standalone="no"?>
<svg
   xmlns:dc="http://purl.org/dc/elements/1.1/"
   xmlns:cc="http://creativecommons.org/ns#"
   xmlns:rdf="http://www.w3.org/1999/02/22-rdf-syntax-ns#"
   xmlns:svg="http://www.w3.org/2000/svg"
   xmlns="http://www.w3.org/2000/svg"
   xmlns:sodipodi="http://sodipodi.sourceforge.net/DTD/sodipodi-0.dtd"
   xmlns:inkscape="http://www.inkscape.org/namespaces/inkscape"
   version="1.1"
   width="543.38629"
   height="338.59827"
   id="svg4136"
   inkscape:version="0.91 r13725"
   viewBox="0 0 543.38629 338.59827"
   sodipodi:docname="dot_transistor.svg"
   inkscape:export-filename="C:\Users\Gediminas\Desktop\qmeq-examples\tutorial\images\dot_transistor.png"
   inkscape:export-xdpi="90"
   inkscape:export-ydpi="90">
  <metadata
     id="metadata4218">
    <rdf:RDF>
      <cc:Work
         rdf:about="">
        <dc:format>image/svg+xml</dc:format>
        <dc:type
           rdf:resource="http://purl.org/dc/dcmitype/StillImage" />
        <dc:title></dc:title>
      </cc:Work>
    </rdf:RDF>
  </metadata>
  <defs
     id="defs4216" />
  <sodipodi:namedview
     pagecolor="#ffffff"
     bordercolor="#666666"
     borderopacity="1"
     objecttolerance="10"
     gridtolerance="10"
     guidetolerance="10"
     inkscape:pageopacity="0"
     inkscape:pageshadow="2"
     inkscape:window-width="1366"
     inkscape:window-height="715"
     id="namedview4214"
     showgrid="false"
     inkscape:zoom="1"
     inkscape:cx="192.81473"
     inkscape:cy="215.58467"
     inkscape:window-x="-8"
     inkscape:window-y="-8"
     inkscape:window-maximized="1"
     inkscape:current-layer="svg4136"
     fit-margin-top="0"
     fit-margin-left="0"
     fit-margin-right="0"
     fit-margin-bottom="0" />
  <path
     d="m 502.4368,153.88187 c -13.4563,3.3168 -40.2106,1.7521 -55.3432,-0.7126 -44.1178,-7.1856 -81.7586,-28.9506 -98.2957,-58.910799 C 323.8993,49.151071 454.6171,0.66637117 501.0598,0.66637117 l 1.377,153.21549883 z"
     style="fill:#f8c800;fill-rule:evenodd;stroke:#000000;stroke-width:0.5;stroke-miterlimit:4;stroke-dasharray:none"
     id="path4138"
     inkscape:connector-curvature="0" />
  <path
     d="M 82.2696,157.49857 85.9102,0.25147117 c 45.3965,0.2726 172.8785,49.52349983 148.2701,94.48409983 -16.3449,29.862699 -53.2684,51.406799 -96.4355,58.332699 -14.8059,2.3758 -42.342,7.8262 -55.4752,4.4303 z"
     style="fill:#ffd100;fill-rule:evenodd;stroke:#000000;stroke-width:0.5;stroke-miterlimit:4;stroke-dasharray:none"
     id="path4140"
     inkscape:connector-curvature="0" />
  <path
     d="m 273.3738,53.135871 c 2.3642,-7.0932 5.7891,-3.0068 11.654,-2.3308 2.6561,0.3059 5.4885,-0.2419 8.1578,0 2.7614,0.2506 0.1269,4.4221 1.1654,4.6616 3.1041,0.7153 9.6645,-4.8208 10.4886,2.3308 0.8119,7.0428 5.827,-2.4031 5.827,5.827 0,8.9791 3.5268,1.2262 5.827,5.827 2.7086,5.4186 -3.0878,4.437 3.4962,8.1578 3.2536,1.839 5.1659,11.9188 6.9924,15.1501 3.6192,6.4044 -1.0539,12.945999 -4.6616,19.811799 -0.8106,1.5425 -12.8194,28.4569 -12.8194,16.3156 0,-3.0398 2.0889,-9.3128 1.1654,-8.1578 -0.4154,0.5189 -6.6668,4.7363 -6.9924,4.6616 -0.3629,-0.0834 0.4223,-5.4047 0,-5.827 -1.3364,-1.3364 -8.821,5.1023 -10.4886,5.827 -2.2463,0.9767 -0.7667,-3.7638 -1.1654,-4.6616 -2.5091,-5.6459 -13.9848,-0.2481 -13.9848,-6.9924 0,-2.5115 2.0441,-8.1578 0,-8.1578 -2.8181,0 -4.1065,0.8603 -8.1578,-1.1654 -0.0834,-0.0413 -2.3308,-10.411699 -2.3308,-11.653999 0,-8.8073 -10.0437,3.2265 -3.4962,-9.3231 2.124,-4.0718 7.3271,-6.038 0,-6.9924 -2.361,-0.3076 4.6707,-9.7778 2.3308,-12.8194 -0.3031,-0.3938 3.7764,-9.3232 6.9924,-10.4886 z"
     style="fill:#008bd0;fill-rule:evenodd;stroke:#000000;stroke-width:0.5;stroke-miterlimit:4;stroke-dasharray:none"
     id="path4142"
     inkscape:connector-curvature="0" />
  <text
     x="109.78531"
     y="88.953461"
     id="text4144">
    <tspan
       font-size="24.0000"
       id="tspan4146"
       style="font-size:24px;font-family:Arial;fill:#1b1918">Source</tspan>
  </text>
  <text
     x="409.27377"
     y="89.545868"
     id="text4148">
    <tspan
       font-size="24.0000"
       id="tspan4150"
       style="font-size:24px;font-family:Arial;fill:#1b1918">Drain</tspan>
  </text>
  <text
     x="276.95059"
     y="94.027161"
     id="text4152">
    <tspan
       font-size="24.0000"
       id="tspan4154"
       style="font-size:24px;font-family:Arial;fill:#1b1918">Dot</tspan>
  </text>
  <path
     d="m 285.0874,139.76987 0,61.7797 33.266,0 0,-61.7797 -33.266,0 z"
     style="fill:#ffd100;fill-opacity:1;stroke:#000000;stroke-width:0.5;stroke-miterlimit:4;stroke-dasharray:none"
     id="path4156"
     inkscape:connector-curvature="0" />
  <text
     x="-197.63962"
     y="309.57843"
     id="text4158"
     transform="matrix(0,-1,1,0,0,0)">
    <tspan
       font-size="24.0000"
       id="tspan4160"
       style="font-size:24px;font-family:Arial;fill:#1b1918">Gate</tspan>
  </text>
  <path
     d="m 301.7203,201.90047 0,37.5432"
     style="fill:none;stroke:#1b1918;stroke-width:2.83459997;stroke-linecap:butt;stroke-linejoin:miter;stroke-dasharray:none"
     id="path4162"
     inkscape:connector-curvature="0" />
  <path
     d="m 294.5837,332.84067 16.153,0"
     style="fill:none;stroke:#000000;stroke-width:0.5;stroke-miterlimit:4;stroke-dasharray:none"
     id="path4164"
     inkscape:connector-curvature="0" />
  <path
     d="m 297.4343,335.45367 9.9768,0"
     style="fill:none;stroke:#000000;stroke-width:0.5;stroke-miterlimit:4;stroke-dasharray:none"
     id="path4166"
     inkscape:connector-curvature="0" />
  <path
     d="m 302.1866,239.67047 a 17.1082,17.5834 0 0 1 17.1082,17.5834 17.1082,17.5834 0 1 1 -17.1082,-17.5834 z"
     style="fill:none;stroke:#000000;stroke-width:0.5;stroke-miterlimit:4;stroke-dasharray:none"
     id="path4170"
     inkscape:connector-curvature="0" />
  <path
     d="m 302.1866,309.56007 0,23.2738"
     style="fill:none;stroke:#1b1918;stroke-width:2.83459997;stroke-linecap:butt;stroke-linejoin:miter;stroke-dasharray:none"
     id="path4172"
     inkscape:connector-curvature="0" />
  <path
     d="m 526.028,203.56727 c 9.4471,0 17.1083,7.874 17.1083,17.5833 0,9.7095 -7.6612,17.5836 -17.1083,17.5836 -9.447,0 -17.1082,-7.8741 -17.1082,-17.5836 0,-9.7093 7.6612,-17.5833 17.1082,-17.5833 z"
     style="fill:none;stroke:#000000;stroke-width:0.5;stroke-miterlimit:4;stroke-dasharray:none"
     id="path4174"
     inkscape:connector-curvature="0" />
  <path
     d="m 526.028,203.56727 0,-121.183099 -24.2319,0.218"
     style="fill:none;stroke:#1b1918;stroke-width:2.83459997;stroke-linecap:butt;stroke-linejoin:miter;stroke-dasharray:none"
     id="path4176"
     inkscape:connector-curvature="0" />
  <path
     d="m 305.8231,249.35117 c 1.2122,-1.9303 2.2513,-2.0035 3.1672,-2.0528 0.2971,-0.0261 0.3217,-0.4456 0.3217,-0.4703 0,-0.1978 -0.1239,-0.2971 -0.3217,-0.2971 l -4.478,0 c -0.1486,0 -0.4703,0 -0.4703,0.4703 0,0.271 0.2225,0.2971 0.3956,0.2971 0.6681,0.0486 1.1384,0.2964 1.1384,0.8159 0,0.371 -0.3717,0.9159 -0.3717,0.9405 l -7.5953,12.0726 -1.6825,-13.0877 c 0,-0.4203 0.5688,-0.7413 1.7071,-0.7413 0.3464,-7e-4 0.6181,0 0.6181,-0.4949 7e-4,-0.2239 -0.1978,-0.2725 -0.3463,-0.2725 -0.9891,0 -2.0535,0.074 -3.068,0.074 -0.4449,0 -0.9152,-0.0247 -1.3608,-0.0247 -0.4449,-7e-4 -0.9152,-0.0493 -1.3361,-0.0493 -0.1732,0 -0.4696,0 -0.4696,0.4703 0,0.2964 0.2225,0.2971 0.6181,0.2971 1.3861,-7e-4 1.4108,0.2224 1.4847,0.8405 l 1.955,15.2659 c 0.0739,0.4942 0.1731,0.5695 0.4942,0.5695 0.3963,-7e-4 0.4949,-0.1239 0.6934,-0.4456 l 8.9068,-14.1775 z"
     style="fill:#000000;fill-rule:evenodd"
     id="path4178"
     inkscape:connector-curvature="0" />
  <path
     d="m 313.8041,260.61487 c 0.069,-0.2597 0.069,-0.3456 0.069,-0.3632 0,-0.3816 -0.3118,-0.5541 -0.5885,-0.5541 -0.3985,-7e-4 -0.7279,0.3288 -0.7969,0.6576 -0.2943,-0.4682 -0.8835,-0.987 -1.7839,-0.987 -2.1648,-7e-4 -4.4337,2.321 -4.4337,4.7976 0,1.7825 1.2123,2.8406 2.6322,2.8406 0.7969,0 1.5593,-0.3985 2.1654,-0.9356 l -0.3815,1.5586 c -0.1901,0.7279 -0.3112,1.1954 -0.9694,1.7839 -0.7624,0.6413 -1.5072,0.6413 -1.9402,0.6413 -0.7962,0 -1.0215,-0.0521 -1.3333,-0.1218 0.4329,-0.2083 0.554,-0.623 0.554,-0.8659 0,-0.4167 -0.3287,-0.6406 -0.6751,-0.6406 -0.485,-7e-4 -0.9877,0.3985 -0.9877,1.0567 0,1.0377 1.4896,1.056 2.4597,1.056 2.7188,0 3.8797,-1.3855 4.1218,-2.3725 l 1.8881,-7.5516 z m -2.39,4.0874 c -0.0697,0.2604 -0.0697,0.2949 -0.364,0.6413 -0.6061,0.7265 -1.4375,1.1777 -2.0957,1.1777 -0.8835,-0.001 -1.2989,-0.7448 -1.2989,-1.6459 0,-0.7624 0.4675,-2.7012 0.918,-3.4636 0.7272,-1.2129 1.5418,-1.5586 2.1303,-1.5586 1.2122,-7e-4 1.5417,1.2989 1.5417,1.472 0,0.0345 0,0.0697 -0.0521,0.2598 l -0.7793,3.1173 z"
     style="fill:#000000;fill-rule:evenodd"
     id="path4180"
     inkscape:connector-curvature="0" />
  <path
     d="m 528.7126,214.60547 c 0.2225,-0.8898 0.2971,-1.1369 2.2514,-1.1369 0.5941,-7e-4 0.792,0 0.792,-0.4703 0,-0.297 -0.2725,-0.297 -0.371,-0.297 l -6.5569,0 c -0.1732,0 -0.4949,0 -0.4949,0.4949 0,0.2717 0.2231,0.2724 0.6927,0.2724 1.0398,-7e-4 1.7071,0 1.7071,0.4703 7e-4,0.1232 0,0.1731 -0.0492,0.3956 l -3.3404,13.3355 c -0.2225,0.9145 -0.2964,1.1637 -2.2514,1.1637 -0.5688,0 -0.792,0 -0.792,0.4942 7e-4,0.2725 0.2971,0.2725 0.3717,0.2725 l 6.5562,0 c 0.1986,0 0.4949,0 0.4949,-0.4703 0,-0.2964 -0.1978,-0.2964 -0.742,-0.2964 -0.4456,0 -0.5695,0 -1.0637,-0.05 -0.5202,-0.0492 -0.6188,-0.1485 -0.6188,-0.4202 0,-0.1993 0.0493,-0.3964 0.0986,-0.5696 l 3.3157,-13.1884 z"
     style="fill:#000000;fill-rule:evenodd"
     id="path4182"
     inkscape:connector-curvature="0" />
  <g
     id="g4184"
     style="stroke-width:0.5;stroke-miterlimit:4;stroke-dasharray:none"
     transform="translate(-25.3817,-191.71503)">
    <path
       d="m 49.5274,358.127 c 1.2123,-1.9311 2.2514,-2.0043 3.1673,-2.0536 0.297,-0.0253 0.3217,-0.4449 0.3217,-0.4702 0,-0.1978 -0.1239,-0.2964 -0.3217,-0.2964 l -4.4781,-7e-4 c -0.1485,0 -0.4702,7e-4 -0.4702,0.4703 0,0.2717 0.2224,0.297 0.3956,0.297 0.6681,0.0486 1.1384,0.2971 1.1384,0.8167 0,0.3703 -0.3718,0.9151 -0.3718,0.9405 l -7.5952,12.0726 -1.6825,-13.0885 c 0,-0.4202 0.5688,-0.7413 1.7071,-0.7413 0.3464,0 0.6181,0 0.6181,-0.4949 7e-4,-0.2231 -0.1978,-0.2717 -0.3463,-0.2717 -0.9891,-7e-4 -2.0536,0.0739 -3.068,0.0739 -0.4449,0 -0.9152,-0.0246 -1.3608,-0.0246 -0.4449,-7e-4 -0.9152,-0.0493 -1.3362,-0.0493 -0.1731,-7e-4 -0.4695,0 -0.4695,0.4696 0,0.297 0.2224,0.297 0.6181,0.297 1.3861,0 1.4108,0.2232 1.4847,0.8413 l 1.9549,15.2659 c 0.074,0.4942 0.1732,0.5695 0.4942,0.5695 0.3964,-10e-4 0.4949,-0.1239 0.6935,-0.4456 l 8.9067,-14.1775 z"
       style="fill:#000000;fill-rule:evenodd;stroke-width:0.5;stroke-miterlimit:4;stroke-dasharray:none"
       id="path4186"
       inkscape:connector-curvature="0" />
    <path
       d="m 42.7399,345.7758 c 9.4471,0 17.1083,7.874 17.1083,17.5833 0,9.7095 -7.6612,17.5835 -17.1083,17.5835 -9.447,0 -17.1082,-7.874 -17.1082,-17.5835 0,-9.7093 7.6612,-17.5833 17.1082,-17.5833 z"
       style="fill:none;stroke:#000000;stroke-width:0.5;stroke-miterlimit:4;stroke-dasharray:none"
       id="path4188"
       inkscape:connector-curvature="0" />
  </g>
  <path
     d="m 302.1866,274.83727 0,37.8652"
     style="fill:none;stroke:#1b1918;stroke-width:2.83459997;stroke-linecap:butt;stroke-linejoin:miter;stroke-dasharray:none"
     id="path4190"
     inkscape:connector-curvature="0" />
  <path
     d="m 84.09,78.875171 -68.5031,0.4677 0,75.433299"
     style="fill:none;stroke:#1b1918;stroke-width:2.83459997;stroke-linecap:butt;stroke-linejoin:miter;stroke-dasharray:none"
     id="path4192"
     inkscape:connector-curvature="0" />
  <path
     d="m 7.9841,247.61087 16.1529,0"
     style="fill:none;stroke:#000000;stroke-width:0.5;stroke-miterlimit:4;stroke-dasharray:none"
     id="path4194"
     inkscape:connector-curvature="0" />
  <path
     d="m 10.8346,250.22377 9.9768,0"
     style="fill:none;stroke:#000000;stroke-width:0.5;stroke-miterlimit:4;stroke-dasharray:none"
     id="path4196"
     inkscape:connector-curvature="0" />
  <path
     d="m 15.5869,224.33017 0,23.2739"
     style="fill:none;stroke:#1b1918;stroke-width:2.83459997;stroke-linecap:butt;stroke-linejoin:miter;stroke-dasharray:none"
     id="path4200"
     inkscape:connector-curvature="0" />
  <path
     d="m 15.5869,189.60747 0,37.8652"
     style="fill:none;stroke:#1b1918;stroke-width:2.83459997;stroke-linecap:butt;stroke-linejoin:miter;stroke-dasharray:none"
     id="path4202"
     inkscape:connector-curvature="0" />
  <path
     d="m 517.4039,296.59347 16.153,0"
     style="fill:none;stroke:#000000;stroke-width:0.5;stroke-miterlimit:4;stroke-dasharray:none"
     id="path4204"
     inkscape:connector-curvature="0" />
  <path
     d="m 520.2544,299.20647 9.9768,0"
     style="fill:none;stroke:#000000;stroke-width:0.5;stroke-miterlimit:4;stroke-dasharray:none"
     id="path4206"
     inkscape:connector-curvature="0" />
  <path
     d="m 525.0067,273.31287 0,23.2738"
     style="fill:none;stroke:#1b1918;stroke-width:2.83459997;stroke-linecap:butt;stroke-linejoin:miter;stroke-dasharray:none"
     id="path4210"
     inkscape:connector-curvature="0" />
  <path
     d="m 525.0067,238.59017 0,37.8652"
     style="fill:none;stroke:#1b1918;stroke-width:2.83459997;stroke-linecap:butt;stroke-linejoin:miter;stroke-dasharray:none"
     id="path4212"
     inkscape:connector-curvature="0" />
  <path
     style="fill:none;fill-rule:evenodd;stroke:#000000;stroke-width:0.5;stroke-linecap:butt;stroke-linejoin:miter;stroke-miterlimit:4;stroke-dasharray:none;stroke-opacity:1"
     d="m 13.312334,253.03472 5.261741,0"
     id="path4220"
     inkscape:connector-curvature="0" />
  <path
     style="fill:none;fill-rule:evenodd;stroke:#000000;stroke-width:0.5;stroke-linecap:butt;stroke-linejoin:miter;stroke-miterlimit:4;stroke-dasharray:none;stroke-opacity:1"
     d="m 299.83088,338.34828 5.26174,0"
     id="path4220-3"
     inkscape:connector-curvature="0" />
  <path
     style="fill:none;fill-rule:evenodd;stroke:#000000;stroke-width:0.5;stroke-linecap:butt;stroke-linejoin:miter;stroke-miterlimit:4;stroke-dasharray:none;stroke-opacity:1"
     d="m 522.63904,302.06043 5.26174,0"
     id="path4220-3-3"
     inkscape:connector-curvature="0" />
</svg>
